<svg t="1655821881007" class="icon" viewBox="0 0 1024 1024" version="1.1" xmlns="http://www.w3.org/2000/svg" p-id="2974" width="200" height="200"><path d="M707.458 897.939c-17.399 0-33.755-6.454-46.071-18.184l-381.794-351.635c-18.050-17.222-28.248-40.588-28.248-65.443 0-24.886 10.198-48.252 28.639-65.846l381.37-350.394c24.632-23.459 67.542-23.459 92.174 0 12.316 11.729 19.093 27.276 19.093 43.846s-6.777 32.178-19.093 43.908l-277.955 262.578c-18.539 17.656-28.737 41.022-28.737 65.908 0 24.855 10.198 48.221 28.639 65.815l278.118 263.54c12.251 11.667 19.028 27.276 19.028 43.846s-6.777 32.147-19.093 43.877c-12.316 11.729-28.672 18.184-46.071 18.184zM707.458-33.808c-34.797 0-67.542 12.909-92.174 36.368l-52.326 49.835-328.555 300.094c-31.279 29.758-48.221 68.732-48.221 110.189s16.943 80.4 47.732 109.692l381.794 351.635c24.241 23.087 56.953 35.995 91.75 35.995 34.83 0 67.542-12.909 92.141-36.368 24.632-23.428 38.186-54.613 38.186-87.754s-13.554-64.357-38.186-87.785l-278.118-263.54c-6.093-5.803-9.481-13.591-9.481-21.876s3.389-16.105 9.546-21.938l277.955-262.578c24.73-23.552 38.284-54.737 38.284-87.878s-13.554-64.326-38.186-87.754c-24.599-23.428-57.344-36.336-92.141-36.336z" p-id="2975"></path></svg>