<svg t="1657270159075" class="icon" viewBox="0 0 1024 1024" version="1.1" xmlns="http://www.w3.org/2000/svg" p-id="856" width="200" height="200"><path d="M618.666667 870.4c-83.2 0-149.333333-51.2-149.333334-119.466667s66.133333-119.466667 149.333334-119.466666c27.733333 0 53.333333 6.4 74.666666 14.933333l40.533334-345.6c4.266667-27.733333 12.8-51.2 27.733333-72.533333 10.666667-17.066667 25.6-29.866667 40.533333-38.4 2.133333-2.133333 6.4-2.133333 8.533334-4.266667l85.333333-25.6c21.333333-6.4 42.666667 2.133333 51.2 21.333333 8.533333 19.2 2.133333 42.666667-14.933333 53.333334-10.666667 6.4-25.6 32-27.733334 57.6-2.133333 14.933333 2.133333 23.466667 2.133334 23.466666 21.333333 8.533333 34.133333 32 25.6 55.466667-8.533333 21.333333-32 34.133333-53.333334 25.6-34.133333-12.8-55.466667-40.533333-59.733333-78.933333L768 755.2c-2.133333 66.133333-66.133333 115.2-149.333333 115.2z m0-151.466667c-38.4 0-64 19.2-64 34.133334s25.6 34.133333 64 34.133333c34.133333 0 59.733333-17.066667 64-29.866667V750.933333c-2.133333-12.8-27.733333-32-64-32z" p-id="857"></path><path d="M603.733333 629.333333H136.533333c-23.466667 0-42.666667-19.2-42.666666-42.666666s19.2-42.666667 42.666666-42.666667h467.2c23.466667 0 42.666667 19.2 42.666667 42.666667s-19.2 42.666667-42.666667 42.666666zM381.866667 808.533333H136.533333c-23.466667 0-42.666667-19.2-42.666666-42.666666s19.2-42.666667 42.666666-42.666667h245.333334c23.466667 0 42.666667 19.2 42.666666 42.666667s-19.2 42.666667-42.666666 42.666666zM603.733333 458.666667H136.533333c-23.466667 0-42.666667-19.2-42.666666-42.666667s19.2-42.666667 42.666666-42.666667h467.2c23.466667 0 42.666667 19.2 42.666667 42.666667s-19.2 42.666667-42.666667 42.666667zM603.733333 288H136.533333c-23.466667 0-42.666667-19.2-42.666666-42.666667s19.2-42.666667 42.666666-42.666666h467.2c23.466667 0 42.666667 19.2 42.666667 42.666666s-19.2 42.666667-42.666667 42.666667z" p-id="858"></path></svg>